<?xml version="1.0" encoding="UTF-8" standalone="no"?>
<svg
   xmlns:dc="http://purl.org/dc/elements/1.1/"
   xmlns:cc="http://creativecommons.org/ns#"
   xmlns:rdf="http://www.w3.org/1999/02/22-rdf-syntax-ns#"
   xmlns:svg="http://www.w3.org/2000/svg"
   xmlns="http://www.w3.org/2000/svg"
   id="svg12"
   version="1.1"
   fill="none"
   viewBox="0 0 1090 182"
   height="182"
   width="1090">
  <metadata
     id="metadata18">
    <rdf:RDF>
      <cc:Work
         rdf:about="">
        <dc:format>image/svg+xml</dc:format>
        <dc:type
           rdf:resource="http://purl.org/dc/dcmitype/StillImage" />
      </cc:Work>
    </rdf:RDF>
  </metadata>
  <defs
     id="defs16" />
  <path
     id="path2"
     fill="#FFC107"
     d="M181.526 69.8145C180.334 66.1292 177.065 63.5117 173.198 63.1632L120.668 58.3934L99.8962 9.77482C98.3646 6.21171 94.8765 3.90527 91.0009 3.90527C87.1254 3.90527 83.6373 6.21171 82.1057 9.78316L61.3338 58.3934L8.79528 63.1632C4.93501 63.52 1.67461 66.1292 0.476262 69.8145C-0.722088 73.4998 0.384615 77.542 3.30481 80.09L43.0114 114.913L31.3029 166.489C30.4461 170.281 31.918 174.201 35.0645 176.476C36.7558 177.698 38.7346 178.32 40.73 178.32C42.4504 178.32 44.157 177.856 45.6886 176.94L91.0009 149.858L136.297 176.94C139.611 178.934 143.789 178.752 146.929 176.476C150.077 174.194 151.547 170.273 150.691 166.489L138.982 114.913L178.689 80.097C181.609 77.542 182.724 73.5067 181.526 69.8145V69.8145Z" />
  <path
     id="path4"
     fill="#FFC107"
     d="M408.526 69.8145C407.334 66.1292 404.065 63.5117 400.198 63.1632L347.668 58.3934L326.896 9.77482C325.365 6.21171 321.876 3.90527 318.001 3.90527C314.125 3.90527 310.637 6.21171 309.106 9.78316L288.334 58.3934L235.795 63.1632C231.935 63.52 228.675 66.1292 227.476 69.8145C226.278 73.4998 227.385 77.542 230.305 80.09L270.011 114.913L258.303 166.489C257.446 170.281 258.918 174.201 262.065 176.476C263.756 177.698 265.735 178.32 267.73 178.32C269.45 178.32 271.157 177.856 272.689 176.94L318.001 149.858L363.297 176.94C366.611 178.934 370.789 178.752 373.929 176.476C377.077 174.194 378.547 170.273 377.691 166.489L365.982 114.913L405.689 80.097C408.609 77.542 409.724 73.5067 408.526 69.8145V69.8145Z" />
  <path
     id="path6"
     fill="#FFC107"
     d="M635.526 69.8145C634.334 66.1292 631.065 63.5117 627.198 63.1632L574.668 58.3934L553.896 9.77482C552.365 6.21171 548.876 3.90527 545.001 3.90527C541.125 3.90527 537.637 6.21171 536.106 9.78316L515.334 58.3934L462.795 63.1632C458.935 63.52 455.675 66.1292 454.476 69.8145C453.278 73.4998 454.385 77.542 457.305 80.09L497.011 114.913L485.303 166.489C484.446 170.281 485.918 174.201 489.065 176.476C490.756 177.698 492.735 178.32 494.73 178.32C496.45 178.32 498.157 177.856 499.689 176.94L545.001 149.858L590.297 176.94C593.611 178.934 597.789 178.752 600.929 176.476C604.077 174.194 605.547 170.273 604.691 166.489L592.982 114.913L632.689 80.097C635.609 77.542 636.724 73.5067 635.526 69.8145V69.8145Z" />
  <path
     id="path8"
     fill="#FFC107"
     d="M862.526 69.8145C861.334 66.1292 858.065 63.5117 854.198 63.1632L801.668 58.3934L780.896 9.77482C779.365 6.21171 775.876 3.90527 772.001 3.90527C768.125 3.90527 764.637 6.21171 763.106 9.78316L742.334 58.3934L689.795 63.1632C685.935 63.52 682.675 66.1292 681.476 69.8145C680.278 73.4998 681.385 77.542 684.305 80.09L724.011 114.913L712.303 166.489C711.446 170.281 712.918 174.201 716.065 176.476C717.756 177.698 719.735 178.32 721.73 178.32C723.45 178.32 725.157 177.856 726.689 176.94L772.001 149.858L817.297 176.94C820.611 178.934 824.789 178.752 827.929 176.476C831.077 174.194 832.547 170.273 831.691 166.489L819.982 114.913L859.689 80.097C862.609 77.542 863.724 73.5067 862.526 69.8145V69.8145Z" />
  <path
     id="path10"
     fill="#FFC107"
     d="M1089.53 69.8145C1088.33 66.1292 1085.07 63.5117 1081.2 63.1632L1028.67 58.3934L1007.9 9.77482C1006.36 6.21171 1002.88 3.90527 999.001 3.90527C995.125 3.90527 991.637 6.21171 990.106 9.78316L969.334 58.3934L916.795 63.1632C912.935 63.52 909.675 66.1292 908.476 69.8145C907.278 73.4998 908.385 77.542 911.305 80.09L951.011 114.913L939.303 166.489C938.446 170.281 939.918 174.201 943.065 176.476C944.756 177.698 946.735 178.32 948.73 178.32C950.45 178.32 952.157 177.856 953.689 176.94L999.001 149.858L1044.3 176.94C1047.61 178.934 1051.79 178.752 1054.93 176.476C1058.08 174.194 1059.55 170.273 1058.69 166.489L1046.98 114.913L1086.69 80.097C1089.61 77.542 1090.72 73.5067 1089.53 69.8145V69.8145Z" />
</svg>
